<svg xmlns="http://www.w3.org/2000/svg" version="1.1" xmlns:xlink="http://www.w3.org/1999/xlink"
  xmlns:svgjs="http://svgjs.dev/svgjs" width="308.7612359841165" height="304.915625" viewBox="0 0 1000 1125">
  <g transform="matrix(1,0,0,1,1.7053025658242404e-13,0)">
    <svg viewBox="0 0 320 360" data-background-color="#ffffff" preserveAspectRatio="xMidYMid meet"
      height="1125" width="1000" xmlns="http://www.w3.org/2000/svg"
      xmlns:xlink="http://www.w3.org/1999/xlink">
      <g id="tight-bounds" transform="matrix(1,0,0,1,0,0)">
        <svg viewBox="0 0 320 360" height="360" width="320">
          <g>
            <svg></svg>
          </g>
          <g>
            <svg viewBox="0 0 320 360" height="360" width="320">
              <g>
                <path xmlns="http://www.w3.org/2000/svg"
                  d="M20.961 227.22l3.726 4.658-1.863-6.056c-0.466-2.795-3.726 0.466-1.863 1.398M25.153 224.425c1.397 2.329 2.795 4.658 2.795 6.987 0 3.261 2.795 4.658 5.123 5.589-3.261-3.726-5.124-13.974-7.918-12.576M204.017 26.929c7.918 0 15.371-0.932 23.756 0.931 20.495 5.124 37.729 15.371 49.374 29.811l32.606 52.169c1.397 13.042 4.192 27.482 3.726 43.319 3.261 0 2.795-4.658 6.521-5.59-3.726 9.316-5.59 20.961-6.521 34.469-2.329-7.453 0-18.632 0.466-24.687-3.261 5.124-5.124 1.397-5.124-0.932 0.466-3.726-1.397-3.261-2.795-4.658-5.124-4.658-8.384-9.782-12.11-17.7 2.329-6.055 2.795-14.905-4.658-19.563-2.329-1.397-5.124-3.726-6.521-7.453-1.863-5.124-5.124-11.179-4.193-19.097 0.466-2.329-6.987 5.124-11.179 1.863-18.166-12.576-36.332-27.016-58.224-39.127-11.645 0-20.029-4.192-24.221-9.316-3.726-4.658-0.932-10.713 4.658-11.179 3.261 0 6.987-0.932 9.782 0.932 0.466-1.863 2.329-4.192 4.657-4.192M157.904 16.215l0.932 0.466c4.658 0.932 6.987 7.453 12.11 5.124 0 3.261 0.466 6.521-0.466 8.85-1.397 3.726-5.59 3.726-8.85 3.726-31.208-1.863-49.374 11.179-68.471 22.358-5.124 3.261-10.713 5.59-14.906 9.782-20.029 18.632-41.921 35.866-47.045 70.335l-4.192 38.195c-0.466 4.192-5.124 8.384-4.192 13.508l3.26 22.824c-3.261-3.261-5.124 0.932-4.192 2.795 0.466 1.397 2.329 6.055 5.124 1.863 3.726 6.987 7.453 20.495 12.576 26.55 15.837 18.632 36.332 35.4 53.101 52.169 4.192-0.932 7.453-0.932 8.384-3.727 1.397 2.795-1.397 5.59-3.726 6.056 7.453 4.658 15.837 8.85 27.016 9.781 14.44 0.932 27.948 3.261 40.524 6.522 6.521-1.863 13.042-2.795 20.029-3.261 2.329 0 3.726-3.726 6.521-4.658l0.466-4.658c2.795 4.192 2.329-1.397 0.466-4.192 3.261 2.795 4.192 5.124 5.589 6.987 0-1.397 3.726-6.521 3.727-0.466l0.931-6.055c1.397-0.932 1.863 5.124 3.261 0.931 1.397-4.192 4.192-0.932 6.987-2.329-0.932 1.863-0.466 5.59 2.794 3.261l3.727-3.261c2.329 5.59 6.055 3.261 7.918 2.329 20.495-13.042 40.99-28.413 60.553-43.784l-0.466 6.055 2.329-7.453c2.329 2.329 4.192 0.466 5.124-0.931 2.795-4.658 6.521-9.316 12.577-13.508-7.453 20.029-16.303 35.866-27.482 48.908l-4.658 5.59c0 3.261-0.932 7.453-4.658 7.918-1.863 0.466-5.59-0.932-8.384 1.863-1.397 1.863 3.261 5.59-0.466 2.795-3.261-2.329-6.521 0-10.248 0.932-2.795 0.932 1.863 3.726 2.795 5.589 0.932 1.863 1.863 3.726 1.398 6.056l-5.124-5.59c-6.055 3.261-9.782 9.316-14.906 13.974-2.329 1.863-1.397 5.124-1.397 7.918-3.261 0-6.987-0.932-8.85 0.932-1.397 1.863-0.932 4.658-0.932 7.453-4.658-0.466-5.124-7.453-9.315-6.056-4.192 0.932-8.85 1.397-12.577 3.727 2.795 5.59-4.658 2.329-3.726 3.26-6.987-4.192-13.042-7.453-20.495-4.658-15.837-5.124-35.4-2.795-49.84-0.931 0-2.329 0.466-4.658-0.466-5.124-0.932 2.329-3.726 1.397-3.26 1.397-8.85-6.055-17.7-9.782-27.016-14.905-8.384 0.932-16.303-3.261-18.632-5.59-6.521-6.055-13.974-2.795-20.029-4.192-13.042-3.261-17.7-16.769-19.098-26.084-0.932-4.658-4.658-6.521-6.055-6.056-6.055-19.563-15.371-37.263-22.824-55.429-1.863-4.658-1.397-9.316-1.397-14.44 2.329 0.932 4.658 0.466 4.192-2.794-2.329-15.371-7.918-27.016-13.974-38.195 3.261-15.837 3.726-34.469 11.179-48.443 6.521-12.576 18.632-19.098 27.016-29.811 2.795-3.726 2.795-8.85 5.59-12.11 9.316-9.316 18.632-19.098 28.879-27.482 4.658-3.726 10.247 0 17.234-1.397 2.329-8.384 11.645-15.837 20.495-13.508 3.726 0.932 11.179-8.85 13.508-9.782 3.726-1.397 1.863 3.726 1.863 6.987 8.85-6.987 20.961-10.713 32.14-14.906"
                  fill="#ee3e38" fill-rule="nonzero" stroke="none" stroke-width="1"
                  stroke-linecap="butt" stroke-linejoin="miter" stroke-miterlimit="10"
                  stroke-dasharray="" stroke-dashoffset="0" font-family="none" font-weight="none"
                  font-size="none" text-anchor="none" style="mix-blend-mode: normal"
                  data-fill-palette-color="tertiary"></path>
              </g>
              <g transform="matrix(1,0,0,1,85.1778656126482,90.00000000000001)">
                <svg viewBox="0 0 149.6442687747036 179.99999999999997" height="179.99999999999997"
                  width="149.6442687747036">
                  <g>
                    <svg viewBox="0 0 149.6442687747036 179.99999999999997"
                      height="179.99999999999997" width="149.6442687747036">
                      <g>
                        <svg viewBox="0 0 149.6442687747036 179.99999999999997"
                          height="179.99999999999997" width="149.6442687747036">
                          <g>
                            <svg viewBox="0 0 149.6442687747036 179.99999999999997"
                              height="179.99999999999997" width="149.6442687747036">
                              <g>
                                <svg viewBox="0 0 149.6442687747036 179.99999999999997"
                                  height="179.99999999999997" width="149.6442687747036">
                                  <g>
                                    <svg viewBox="0 0 149.6442687747036 179.99999999999997"
                                      height="179.99999999999997" width="149.6442687747036">
                                      <g transform="matrix(1,0,0,1,0,0)">
                                        <svg width="149.6442687747036"
                                          viewBox="0.8500000238418579 -37.650001525878906 31.55000114440918 37.95000076293945"
                                          height="179.99999999999997" data-palette-color="#ee3e38">
                                          <path
                                            d="M12.9 0Q12.1 0 11.73-0.3 11.35-0.6 11.35-1.3L11.35-1.3 11.35-7.85Q10.7-8.3 8.9-8.65 7.1-9 5.5-9.1L5.5-9.1Q4.95-8.05 4.7-6.55L4.7-6.55 4.5-5.55Q4.45-5.2 4.2-4 3.95-2.8 3.65-1.93 3.35-1.05 3.05-0.55L3.05-0.55Q1.15-0.55 0.85-1.55L0.85-1.55Q1.4-2.35 2.1-6.25L2.1-6.25 3.75-15.4Q4.85-21.9 5.78-26.5 6.7-31.1 7.75-34.2L7.75-34.2Q8.9-37.65 9.95-37.65L9.95-37.65Q11-37.65 11.55-37.25L11.55-37.25Q11.55-35.25 12.5-27.6L12.5-27.6Q13.5-20.1 13.5-17.35L13.5-17.35Q13.5-14.7 14.05-9.75L14.05-9.75Q14.55-4.7 14.55-1.7L14.55-1.7Q14.55 0 12.9 0L12.9 0ZM10.3-10.75Q10.7-10.75 11.3-10.9L11.3-10.9Q11.15-13.1 10.8-16.35L10.8-16.35Q9.65-27.65 9.65-30.2L9.65-30.2 9.65-30.6Q9.15-30.1 8.28-26.08 7.4-22.05 6.65-17.45 5.9-12.85 5.85-11.35L5.85-11.35Q7.95-10.75 10.3-10.75L10.3-10.75ZM22.15 0.3Q20.85 0.3 20.85-6.25L20.85-6.25 20.95-14.15Q21-17.65 21-22L21-22Q21-23.6 20.7-26.95L20.7-26.95Q20.45-30.6 20.45-31.4L20.45-31.4Q20.45-32.05 21-32.55 21.55-33.05 22.2-33.05L22.2-33.05Q23.95-33.05 25.57-32.27 27.2-31.5 28.45-30.1L28.45-30.1Q31.1-27.05 31.95-23.4L31.95-23.4Q32.4-21.55 32.4-19.75L32.4-19.75Q32.4-19.1 32.35-18.55L32.35-18.55 32.3-17.2 32.3-14.45Q32.3-11.25 32.1-9.4L32.1-9.4Q31.8-6.9 30.95-4.95L30.95-4.95Q29.95-2.85 28.05-1.2L28.05-1.2Q27.15-0.45 25.75 0.3L25.75 0.3 22.15 0.3ZM24.35-2.25Q25.35-2.25 26.2-2.78 27.05-3.3 27.65-4.2L27.65-4.2Q28.15-5 28.57-6.23 29-7.45 29.2-8.6L29.2-8.6Q29.65-10.85 29.75-13.2L29.75-13.2Q29.8-13.8 29.8-14.95L29.8-14.95Q29.8-30.05 23.95-30.7L23.95-30.7Q23.6-28.45 23.6-25.5L23.6-25.5Q23.6-22.35 24-14.5L24-14.5Q24.35-7.55 24.35-3.45L24.35-3.45 24.35-2.25Z"
                                            opacity="1" transform="matrix(1,0,0,1,0,0)"
                                            fill="#ee3e38" class="undefined-text-0"
                                            data-fill-palette-color="primary" id="text-0"></path>
                                        </svg>
                                      </g>
                                    </svg>
                                  </g>
                                </svg>
                              </g>
                            </svg>
                          </g>
                        </svg>
                      </g>
                    </svg>
                  </g>
                </svg>
              </g>
            </svg>
          </g>
          <defs></defs>
        </svg>
        <rect width="320" height="360" fill="none" stroke="none" visibility="hidden"></rect>
      </g>
    </svg>
  </g>
</svg>